# xmcd CD database file
#
# Track frame offsets:
#	150
#	8952
#	18907
#	32692
#	49005
#	61840
#	69475
#	77917
#	89287
#	98000
#	111080
#	117585
#	124607
#	130107
#	141120
#	155955
#
# Disc length: 2234 seconds
#
# Revision: 0
# Processed by: cddbd v1.5.1PL0 Copyright (c) Steve Scherf et al.
# Submitted via: CDex 1.60beta1-cs1
#
DISCID=d208b810
DTITLE=portuguese folklore - portuguese folklore
DYEAR=1900
DGENRE=folclore
TTITLE0=vira de santa marta (minho)
TTITLE1=rusga de santa marta (minho)
TTITLE2=um vira minhoto (minho)
TTITLE3=chula valseada (douro litoral)
TTITLE4=são benedito (minho)
TTITLE5=verde gaio (trás-os-montes)
TTITLE6=campanitas de toledo (trás-os-montes)
TTITLE7=dança d'ai (beira litoral)
TTITLE8=fado rusga (beira douro)
TTITLE9=al larilarilolola (beira alta)
TTITLE10=fadinho passado e batido (ribatejo)
TTITLE11=rebola a bola (ribatejo)
TTITLE12=bate o pé no chão (alto alentejo)
TTITLE13=fandango (ribatejo)
TTITLE14=lindo ramo verde escuro (baixo alentejo)
TTITLE15=alma algarvia (algarve)
EXTD=
EXTT0=
EXTT1=
EXTT2=
EXTT3=
EXTT4=
EXTT5=
EXTT6=
EXTT7=
EXTT8=
EXTT9=
EXTT10=
EXTT11=
EXTT12=
EXTT13=
EXTT14=
EXTT15=
PLAYORDER=
